<svg version="1.1" id="svg1" width="6562.48" height="1948.2133" viewBox="0 0 6562.48 1948.2133" sodipodi:docname="vecteezy_a-black-and-white-drawing-of-a-heart-with-a-line_68870569.eps" xmlns:inkscape="http://www.inkscape.org/namespaces/inkscape" xmlns:sodipodi="http://sodipodi.sourceforge.net/DTD/sodipodi-0.dtd" xmlns="http://www.w3.org/2000/svg" xmlns:svg="http://www.w3.org/2000/svg">
  <defs id="defs1" fill="#5d4037"/>
  <sodipodi:namedview id="namedview1" pagecolor="#ffffff" bordercolor="#5d4037" borderopacity="0.25" inkscape:showpageshadow="2" inkscape:pageopacity="0.0" inkscape:pagecheckerboard="0" inkscape:deskcolor="#d1d1d1" fill="#5d4037">
    <inkscape:page x="0" y="0" inkscape:label="1" id="page1" width="6562.48" height="1948.2133" margin="0" bleed="0" fill="#5d4037"/>
  </sodipodi:namedview>
  <g id="g1" inkscape:groupmode="layer" inkscape:label="1">
    <g id="group-R5">
      <path id="path2" d="m 48865.6,437.402 c -90.7,-10 -181.4,-21.601 -272.4,-25.8 -95.3,-4.399 -190.9,-1 -286.3,-1 -312.1,-7.301 -621.3,27.199 -930.7,62.898 -318.2,36.801 -631.1,97.801 -940,181.402 -305.3,82.598 -601.2,188.899 -877.4,346.098 -155.7,88.6 -301.9,190.2 -437.2,307.2 -91.8,79.3 -168.7,171.3 -227,278.3 -40.2,73.9 -64.3,152.6 -76.5,235.4 -5.6,37.3 -6.1,74.3 0.8,111.5 24.2,131.6 53.6,159.8 189.1,163.5 246.8,6.7 488.1,-29.3 723.6,-103.1 71.5,-22.5 136.5,-59.5 200.3,-99 38.6,-23.9 78.8,-47.7 121.6,-61.3 49.2,-15.5 100.3,-10 135.5,35.9 33.6,43.9 35.2,93.7 10.6,141 -41.7,80.3 -110.3,134.8 -189.6,173.9 -127,62.5 -260.5,108.5 -398.6,139.2 -125.5,27.9 -252,52.1 -381.3,55.7 -12.3,0.3 -24.9,6.2 -22.1,21.6 1.2,6.8 8.9,15 15.6,17.7 42.3,17.1 84,36.8 127.8,48.5 186,49.9 374.4,68.4 567.2,49.7 356.1,-34.5 689.1,-145.1 1008.8,-299.5 326.1,-157.5 629.8,-350.9 916.7,-572.6 250.8,-193.8 473.9,-416 689,-646.901 133.4,-143.297 247.5,-301.297 334.3,-477.797 7.3,-14.8 14.9,-29.8 19.5,-45.5 5.4,-18.203 -2.2,-34.902 -21.3,-37 z M 40886.3,1681.4 c -50.4,-28.9 -101.5,-56.5 -152.3,-84.7 -31,-17.3 -61.1,-17.6 -95.1,-4.2 -70.3,27.8 -134.8,64.1 -190.9,114.8 -185.4,167.5 -299,375.7 -342.5,620.6 -26.1,147.1 -42.1,295.4 -35.7,446 15.1,361.1 116.3,693.2 320.2,993.4 159.2,234.6 378.2,394.3 634.3,504.8 168.3,72.6 344.9,117.8 529.5,130.3 120,8.1 239.4,25.5 359.2,37.1 92.4,9 178,39.7 261.7,76.8 101.2,44.9 182.3,114.68 242.7,207.58 38.1,58.5 74,118.4 113.8,182.4 81.3,-54.5 130.7,-130.2 172,-211.4 59.5,-116.98 79.3,-243.98 86.1,-373.38 17,-322.6 -57.8,-626.6 -193.2,-916.6 -165.2,-353.6 -399.5,-658.5 -669.7,-938.3 -305.7,-316.6 -659.9,-567.9 -1040.1,-785.2 z M 24513.4,2977.5 c -337.1,214.4 -649,462.4 -951.1,722.7 -289.8,249.6 -558.9,520.3 -808,810.9 -116.1,135.58 -235.4,268.38 -351,404.38 -393.4,463.1 -740.8,959.3 -1049,1482.2 -278.6,472.8 -516,965.6 -697.5,1484.9 -82.2,235.2 -162.5,470.7 -229.7,710.3 -83,296.1 -139.4,597.5 -170,904.1 -23.2,231.5 -39.5,463.1 -43.5,695.72 -6.9,396.8 35.4,787 148.7,1168.7 74.9,252.2 180.1,490.4 315.5,715.6 17.1,28.5 36,55.9 52.1,84.9 178.5,320.4 446.1,544.6 772.9,698.3 239.4,112.5 495.6,161 761.3,160.4 438.3,-0.9 839.9,-135.9 1228.2,-325.2 282.6,-137.8 529.2,-326.3 765.4,-530.3 12.5,-10.8 23.9,-23 35.1,-35.2 37,-40.3 38.2,-44.2 11.7,-97.2 -150.9,-301.5 -270,-615.2 -364.4,-938.6 -125.5,-429.2 -181.7,-868 -188.3,-1314.42 -4.5,-304.8 25.9,-605.6 97.3,-901.3 56.6,-234.2 133.8,-462.2 241.3,-678.9 83.6,-168.5 191.9,-320.3 314.1,-462.3 122.2,-142.1 275.5,-237.1 453.1,-295.7 150.4,-49.5 294.4,-31.6 435.4,33.7 217.6,100.7 365.3,270.7 466,482.7 94.9,199.8 152.3,411.2 185.2,630.6 20.9,140 27.2,280.8 41.4,421 13,128.5 -7.3,257.2 -22.6,384.8 -40.1,334.9 -117.5,661.72 -228.3,980.22 -131.6,378.2 -315.4,730.9 -526.8,1070 -138.6,222.3 -294.1,432.3 -460.9,634.1 -7.9,9.6 -16.7,18.4 -24.5,28.2 -19.7,24.8 -25.6,51.5 -9.2,80.7 14.3,25.3 26.9,51.6 42.8,75.8 250.4,378.8 529,734.7 870.3,1036.7 455.7,403.3 959.8,725.8 1550.7,894.9 411.4,117.6 831.5,167.3 1256.8,109.8 507.5,-68.7 968,-259.3 1372.3,-577.4 283,-222.6 526.1,-483 717.6,-788.2 141.8,-225.8 248.5,-469.1 331.6,-722.5 121.1,-369.7 179.6,-749.8 190.9,-1137.9 0.7,-24.9 0.1,-49.8 0.1,-74.7 -10.6,-555.8 -107.7,-1097.22 -263.8,-1629.72 -65.4,-223.1 -136.8,-444 -217.3,-662 -90.6,-245.5 -199.1,-483.6 -315.2,-717.7 -212.4,-428.1 -454.1,-839.8 -725.9,-1232.9 -207.8,-300.7 -437.2,-585 -679.3,-859.1 -264.1,-299 -539.1,-587.7 -830.8,-859.4 -585.2,-545.28 -1221.6,-1023.58 -1911.9,-1428.38 -415.5,-243.7 -841.2,-468.3 -1283.5,-660.3 -158.6,-68.9 -158.8,-70.1 -305.3,23 z m -3301.2,2972.28 c -338.4,431.7 -650.1,881.4 -923,1358 -270.8,472.9 -505,961.3 -684.4,1477.1 -157.6,452.9 -267.9,916 -330.5,1390.02 -62.4,473.4 -44.7,944.2 83.3,1407.5 96.4,348.8 257.7,665.1 478.3,950.4 239.4,309.8 547.3,531.3 911.3,670.9 328.6,126 670.6,187.9 1023.8,181.1 153.3,-3 341.2,-27.9 452.9,-60.7 -18,-23.7 -45.1,-17.1 -68.8,-20.4 -135.5,-19 -272.5,-28.2 -406,-61.4 -328.2,-81.7 -620.6,-230.1 -870.6,-460.6 -251.3,-231.6 -434.8,-511.4 -583.9,-815.3 -158.5,-323.3 -250.9,-667.4 -305,-1021.9 -61.6,-404.1 -58.5,-810.7 -36.4,-1217.72 31.7,-584.7 166.3,-1148.2 347.7,-1702.4 125.4,-383.2 276.4,-755 455.6,-1116.7 205,-413.9 437.7,-810.4 697.3,-1191.9 23.3,-34.2 44.1,-70.2 66.1,-105.4 8.7,-14 7.6,-28.7 4,-43.5 -104.2,127.5 -210.2,253.4 -311.7,382.9 z m 3333,5923.32 c 201.3,-228.8 360.1,-461.1 502.8,-705.2 204,-348.8 370.1,-714.3 485,-1102.1 99.6,-336.12 145.4,-681.02 158.6,-1030.52 5.4,-141.4 -14,-281.3 -34.7,-421 -13.9,-94.4 -28.1,-188.3 -52.6,-280.9 -27.7,-105.1 -69.1,-204.3 -120.1,-299.4 -53.7,-100 -125,-185.9 -221.8,-247.9 -141.1,-90.5 -286.7,-102.5 -435.7,-20.7 -102.8,56.4 -192.5,129.8 -268.9,218.8 -98,114.2 -175.5,241.7 -235.6,379.3 -191.9,439.2 -286.9,899.7 -294.8,1378 -7.4,447.62 65.8,883.62 191.9,1312.32 68.1,231.5 157.5,454.4 253.6,675 19.4,44.6 43.5,87.1 72.3,144.3 z M 7519.7,4408.9 C 7466,4403.3 7412.2,4398.6 7358.3,4397 6888.1,4383.1 6425,4319.4 5963.4,4228.2 5456.6,4128 4962.7,3986.9 4482.5,3800.3 3728.3,3507.4 3021.5,3126 2370.3,2643.1 1868.9,2271.2 1398.9,1864.1 963.496,1417 847.598,1298 732.801,1178 618,1058.1 c -10.402,-10.9 -18.301,-24.2 -27.203,-36.7 -15.699,23 -11.399,46.5 0.601,69.4 55.903,106.5 106.602,216.3 169.102,318.8 301.8,494.7 649.3,954.4 1073,1352 242.3,227.4 500.3,436.7 776.5,622.6 317.6,213.9 651.6,398.9 1001.2,553.7 400,177.2 818.2,296.1 1247.2,382 404.3,81.1 812.8,118.2 1223.2,144.1 498.5,31.5 995.7,13.8 1498.6,-29.9 -15.9,-26.1 -40.6,-23.2 -60.5,-25.2 z m 41680,-3934.099 c -18.4,41.801 -34.4,84.801 -55.8,124.902 -153.8,287.5 -346.9,546.697 -573.8,780.097 -305.4,314.3 -652.6,577 -1021.1,812.6 -423.8,271 -877.3,469.9 -1372.3,568.2 -284.7,56.6 -568.5,56.9 -852.7,-8.6 -225.3,-51.9 -420.8,-152.4 -572.8,-328.9 -40.2,-46.8 -86.4,-69.7 -147.3,-81.5 -215.8,-41.8 -434,-71.8 -645.7,-134.6 -441.6,-131.1 -884.8,-256.7 -1326.2,-388.4 -342.3,-102.1 -687,-193.9 -1039.3,-254.2 -110.3,-18.9 -221.1,-38.3 -333.8,-36.1 -15.1,0.3 -34.2,-2.3 -35.6,24.1 92,61.4 187.7,119.8 277.4,186.2 331.5,245.4 636.5,518.5 896.1,841.8 198.8,247.6 370.8,508.3 491.2,804.2 111.1,272.7 177.1,553 182.4,846.8 3.8,209.9 -27.5,414.18 -122.5,604.48 -54.1,108.2 -119.7,208.2 -210.3,290.9 -84.9,77.5 -181,93.1 -289.3,65.2 -101.7,-26.3 -163.6,-88 -193.5,-189.7 -47.3,-160.3 -160.5,-246 -324.5,-267.4 -168.7,-22 -337.4,-44.6 -506.2,-65.8 -233.5,-29.5 -454,-102.98 -660.5,-211.98 -406.8,-214.7 -684.5,-544.5 -844.2,-975.3 -159.6,-430.4 -172.5,-870.2 -65.6,-1311.2 67.6,-278.7 198.5,-528.2 434,-708.8 6.6,-5 13.1,-10.3 19,-16 17,-16.7 15.4,-38.4 -6.4,-51.1 -32.2,-18.6 -64.6,-37.9 -99,-51.6 -177.5,-70.3 -353.2,-146 -533.9,-206.8 -558.8,-188.097 -1124.8,-350.101 -1702,-474.3 -699.3,-150.598 -1404.8,-254.398 -2117.4,-311.898 -153,-12.301 -306.8,-16.102 -460,-27.2 -518.1,-37.8 -1036.9,-48.5 -1556.1,-36.203 -182.6,4.301 -365.4,13.203 -547.4,27.801 -326.9,26.301 -653.7,54.301 -979.7,89.402 -305.3,33 -610.3,71 -914,116.399 -242.1,36.101 -481.5,89.402 -722.9,129.898 -549.3,92.203 -1088,229.203 -1625.1,374.001 -256.7,69.2 -507.5,156.4 -761.4,234.2 -456.7,140 -905.9,300.2 -1345.4,487.5 -64.9,27.6 -130.9,52.7 -195.9,80 -359.8,151.1 -717.2,307.6 -1063.6,487.8 -224.5,116.8 -448.2,235.3 -672.4,352.8 -18.9,9.9 -35.8,20.4 -40.9,49.6 43.2,20 87.6,42 133,61.4 435.9,186.7 854.5,406.6 1257.8,655.4 417.4,257.5 817.9,539.1 1201.5,844.9 318.6,253.9 624.5,522.78 914.1,808.38 325.1,320.6 636.7,654.7 915.8,1017.9 194.9,253.6 388.8,507.8 560.8,777.5 265.7,417.1 508.7,847.2 707,1300.8 361.8,828 597.2,1688.2 658.1,2593.52 41.5,615 -45.1,1208 -274,1781 -246.1,615.8 -648.7,1106.5 -1185,1489.8 -381,272.2 -804.6,442.5 -1267.2,520.9 -497,84.1 -984,45.3 -1465.5,-95.8 -483.9,-141.8 -921.6,-373.8 -1325.5,-673.1 -274.9,-203.6 -517,-442.4 -748,-693.2 -172.1,-186.8 -326.8,-386.8 -460.6,-602.9 -28.1,-45.5 -59.8,-88.7 -93.3,-137.9 -78.7,74.1 -150.1,142.6 -222.8,209.7 -238.8,220.4 -494.4,420.3 -777.6,579.2 -341.2,191.4 -700.5,342.8 -1083.2,433.5 -297.3,70.5 -598,92 -902.7,76.9 -489.5,-24.1 -935.8,-177.4 -1342.5,-445.9 -501.8,-331.4 -821.2,-803 -1016.8,-1362.5 -117.3,-335.4 -167.3,-684.9 -178.6,-1039.3 -11.3,-354.3 30.9,-704.9 89.3,-1053.32 86.8,-517.9 243.3,-1016.3 438.4,-1502.9 215.5,-537.6 496.9,-1041 805.3,-1529.4 291,-460.7 621.3,-892.6 977.1,-1305.1 317.5,-368.1 651.1,-720.7 1004.8,-1054.48 293.2,-276.7 593,-545.2 913.3,-790.1 155,-118.5 311.6,-235 467.7,-352 202.7,-151.8 406.8,-301.6 620.8,-437.5 9.6,-6.1 15.7,-17.8 23.8,-27.4 -24.1,-29.5 -57.5,-32.7 -88.2,-42 -95.3,-28.9 -189.9,-60.3 -286,-86.4 -176.1,-47.8 -351.6,-99.8 -530.1,-137.3 -512,-107.8 -1027.2,-197.3 -1550,-235.3 -289.8,-21 -579.6,-46.6 -869.8,-58.9 -410.9,-17.4 -821.7,-14.1 -1232.6,14.4 -493.1,34.3 -984.8,75.8 -1473.8,150.8 -455.4,69.9 -909.7,145.2 -1361.3,237 -748.5,152.3 -1489.3,337.4 -2227.7,531.8 -722.4,190.2 -1442.7,388 -2165.9,575 -546.3,141.2 -1095.9,270.2 -1643.7,405.7 -64.3,15.9 -132.2,28.9 -189,60.2 -81.8,45.3 -168.4,69.9 -257.5,88.9 -280,59.8 -559.8,120.9 -840.9,175.6 -354.4,69 -711,125.4 -1067.7,181.58 -550.9,86.8 -1105,128 -1661.7,139.7 -298.9,6.3 -597.8,0.5 -896.6,-17.6 -406.7,-24.6 -810.2,-72.5 -1209.3,-155.08 C 4072,4450.4 3428.1,4202.4 2826,3846.5 2173,3460.6 1598.6,2983.4 1117.6,2393.7 793.398,1996.3 510,1573.3 276.699,1117.1 197.5,962.203 123.496,804 67.0977,638.699 c -26.7969,-78.5 -54.7969,-157 -64.5977,-240 -11.20313,-95.199 14,-136 100.996,-176.597 45,-21 88.805,-22 130.602,4.597 34.8,22.102 69.101,45.801 100.402,72.602 C 429.598,380.602 510.098,475.703 589.301,572 676.297,677.801 762.199,784.801 854,886.5 c 516.4,572 1084.8,1087.7 1704.3,1545.6 488.9,361.3 1011.9,666.4 1568.5,912.6 418.1,184.9 844,347.4 1285.9,467.3 361,98.1 725.8,176.8 1096.4,227 354,47.8 709.5,79.8 1067.1,87.8 436.2,9.7 872.1,3.9 1307.2,-28.4 480.4,-35.7 958.2,-95.5 1435.3,-161 102.7,-14.1 207.9,-23.7 306.2,-53.8 191.1,-58.6 387.4,-92.1 581.1,-138.2 266.4,-63.3 534.2,-120.9 799.5,-188.5 426.2,-108.5 850.8,-223.2 1276,-335.4 345,-91 689.8,-182.6 1034.9,-273.4 337,-88.7 673.3,-180.4 1011.6,-264 354.5,-87.5 710.2,-170.2 1066.8,-249 376.7,-83.3 755.1,-159.2 1133.6,-234.6 366.9,-73.2 737.8,-116.1 1107,-171.8 221.8,-33.4 445.2,-51.8 668.9,-66.7 256.9,-17.2 513.4,-43 770.6,-51.9 585.7,-20.3 1170.6,4 1754.6,51 91.1,7.3 182.1,15.7 272.9,25.8 313.6,34.8 624.9,85.7 935.4,141.5 524.1,94.2 1036.3,232.9 1537.1,413 53.2,19.2 92.1,13.2 138.8,-14.1 268.8,-157 540.5,-308.7 817.7,-450.9 262.4,-134.5 526.4,-265.4 797.2,-381.7 602.7,-258.7 1213.9,-495.8 1837.9,-698.501 556.6,-180.797 1118.2,-343.797 1690.1,-470.797 437.6,-97.101 876,-189.8 1318.6,-261.601 180.2,-29.301 360.5,-58.801 541.7,-81 251.3,-30.899 503.6,-53.399 755.1,-82.602 396.2,-45.8982 793.7,-73.8982 1192.1,-88.3982 843.6,-30.6016 1685.6,0 2526,76.3008 430.2,39.1014 857.5,102.1994 1281.8,182.0974 554.8,104.301 1105.4,229.504 1647.1,389.102 437.9,128.902 872.3,269.801 1285.1,468.799 71,34.3 144.5,63.2 217,94.3 34.6,14.9 68.9,18.7 108.3,15.2 274.3,-24.7 547.8,-7.2 819.9,28.7 234.9,30.9 464.3,91.3 692.1,154.1 428,117.9 854.1,243 1280.2,368 302.7,88.9 607.4,169.6 916.3,234.1 30.3,6.3 62.7,20.1 89.5,6.7 15.4,-26.9 10.9,-47.6 8.2,-67.8 -20.2,-148.7 11.5,-288.4 70.6,-424.2 74.4,-171.2 188.8,-313.5 327.5,-434 210.8,-183.098 443,-336.2 696,-455.899 446.6,-211.102 920.6,-330.399 1404.5,-414.5 241.5,-42 486.1,-59.199 729.9,-82.5 298.3,-28.5 597.1,-31.199 896,-34.399 45.3,-0.5 93.6,-0.5 135.5,13.899 56.1,19.301 112.1,26.5 170.1,29.902 68.9,3.899 129.1,29.797 178.5,78.297 68.2,67 96.3,144 55.5,236.801" style="fill:#5d4037;fill-opacity:1;fill-rule:nonzero;stroke:none" transform="matrix(0.13333333,0,0,-0.13333333,0,1948.2133)"/>
    </g>
  </g>
</svg>